<?xml version="1.0" encoding="UTF-8" standalone="no"?>
<!DOCTYPE svg PUBLIC "-//W3C//DTD SVG 1.1//EN" "http://www.w3.org/Graphics/SVG/1.1/DTD/svg11.dtd">
<svg width="100%" height="100%" viewBox="0 0 57 83" version="1.1" xmlns="http://www.w3.org/2000/svg" xmlns:xlink="http://www.w3.org/1999/xlink" xml:space="preserve" xmlns:serif="http://www.serif.com/" style="fill-rule:evenodd;clip-rule:evenodd;">
    <g transform="matrix(1,0,0,1,-23.8,-33)">
        <path d="M59.31,111.2L53.67,105.56C53.231,105.118 52.633,104.869 52.01,104.869C51.387,104.869 50.789,105.118 50.35,105.56L44.71,111.2C44.277,111.64 44.033,112.233 44.033,112.85C44.033,114.134 45.086,115.193 46.37,115.2L57.65,115.2C58.934,115.193 59.987,114.134 59.987,112.85C59.987,112.233 59.743,111.64 59.31,111.2Z" style="fill:rgb(255,0,76);fill-rule:nonzero;"/>
    </g>
    <g transform="matrix(1,0,0,1,-23.8,-33)">
        <path d="M58.67,110.56L53.67,105.56C53.231,105.118 52.633,104.869 52.01,104.869C51.387,104.869 50.789,105.118 50.35,105.56L45.35,110.56C49.585,112.472 54.445,112.472 58.68,110.56L58.67,110.56Z" style="fill:rgb(160,34,76);fill-rule:nonzero;"/>
    </g>
    <g transform="matrix(1,0,0,1,-23.8,-33)">
        <path d="M52,33C36.44,33 23.8,48.61 23.8,64.18C23.8,84 36.44,107 52,107C67.56,107 80.23,84 80.23,64.18C80.23,48.61 67.58,33 52,33Z" style="fill:rgb(255,0,76);fill-rule:nonzero;"/>
    </g>
    <g transform="matrix(1,0,0,1,-23.8,-33)">
        <path d="M26,57.5C26.007,55.624 26.13,53.751 26.37,51.89C24.701,55.774 23.828,59.953 23.8,64.18C23.8,84 36.44,107 52,107C57,107 61.63,104.65 65.69,100.82C43.35,98.86 26.002,79.926 26,57.5Z" style="fill:rgb(160,34,76);fill-rule:nonzero;"/>
    </g>
    <circle cx="36.7" cy="19.5" r="12.5" style="fill:rgb(255,118,164);"/>
    <path d="M24.2,74L32.2,74" style="fill:none;fill-rule:nonzero;stroke:rgb(33,33,33);stroke-width:1px;"/>
</svg>
